<?xml version="1.0" encoding="UTF-8"?>
<svg version="1.1" xmlns="http://www.w3.org/2000/svg" width="137" height="112">
<path d="M0 0 C8.73883808 6.76310078 15.91824492 15.95764695 18 27 C19.9650125 45.4899097 15.49074267 59.52206252 4 74 C-8.16643486 88.45596089 -27.58448646 97.27449271 -46 100 C-68.61592045 101.50114075 -86.11808337 98.96149396 -104.56640625 85.33203125 C-105.03949219 84.89246094 -105.51257813 84.45289062 -106 84 C-106 83.34 -106 82.68 -106 82 C-106.99 81.67 -107.98 81.34 -109 81 C-110.71875 78.8125 -110.71875 78.8125 -112.5 76 C-113.0878125 75.0925 -113.675625 74.185 -114.28125 73.25 C-118.12314566 65.98532458 -119.5382849 59.37647169 -119.4375 51.1875 C-119.42505249 49.8737439 -119.42505249 49.8737439 -119.41235352 48.53344727 C-119.02154118 33.47813227 -112.11120282 22.37033708 -102.375 11.3125 C-101.91988037 10.78269531 -101.46476074 10.25289062 -100.99584961 9.70703125 C-98.74564702 7.25419219 -97.52919976 6.06195865 -94.1640625 5.66796875 C-93.44992188 5.77753906 -92.73578125 5.88710938 -92 6 C-91.896875 5.38125 -91.79375 4.7625 -91.6875 4.125 C-91 2 -91 2 -88 0 C-85.95703125 -0.4140625 -85.95703125 -0.4140625 -83.8125 -0.625 C-82.554375 -0.74875 -81.29625 -0.8725 -80 -1 C-79.91459961 -1.62559814 -79.82919922 -2.25119629 -79.74121094 -2.89575195 C-79 -5 -79 -5 -77.31347656 -5.98901367 C-76.59643555 -6.21306885 -75.87939453 -6.43712402 -75.140625 -6.66796875 C-74.35429688 -6.92126953 -73.56796875 -7.17457031 -72.7578125 -7.43554688 C-71.51644531 -7.80776367 -71.51644531 -7.80776367 -70.25 -8.1875 C-69.43789062 -8.44724609 -68.62578125 -8.70699219 -67.7890625 -8.97460938 C-44.80735746 -16.21721512 -19.96755896 -13.41999895 0 0 Z " fill="#C90033" transform="translate(119,12)"/>
<path d="M0 0 C1.48831242 0.00667405 2.97660807 0.01863442 4.46484375 0.03515625 C5.22345703 0.03966797 5.98207031 0.04417969 6.76367188 0.04882812 C8.64326246 0.06064945 10.52281274 0.07858547 12.40234375 0.09765625 C10.20740352 6.0704263 7.94652205 11.97560858 5.2890625 17.7578125 C4.92619141 18.54945801 4.56332031 19.34110352 4.18945312 20.15673828 C3.46750666 21.71828413 2.73601254 23.27545819 1.99414062 24.82763672 C0.03293444 29.07472093 -1.15278569 32.30873958 -0.59765625 37.09765625 C0.49203049 38.40646591 0.49203049 38.40646591 3.15234375 38.28515625 C6.50969768 38.09146275 8.53345711 37.85086475 11.40234375 36.09765625 C12.11448842 34.11339457 12.77252994 32.10956555 13.40234375 30.09765625 C14.37722169 27.78814618 15.38065235 25.49056314 16.40625 23.203125 C16.68959702 22.57030106 16.97294403 21.93747711 17.26487732 21.28547668 C17.85935622 19.95963089 18.45524707 18.63441735 19.05249023 17.30981445 C19.96926627 15.27534198 20.88043199 13.23842229 21.79101562 11.20117188 C22.3707637 9.910008 22.95083037 8.61898712 23.53125 7.328125 C24.0579126 6.15660889 24.5845752 4.98509277 25.12719727 3.77807617 C26.40234375 1.09765625 26.40234375 1.09765625 27.40234375 0.09765625 C30.09889229 0.02446004 32.76925833 0.00523088 35.46484375 0.03515625 C36.22345703 0.03966797 36.98207031 0.04417969 37.76367188 0.04882812 C39.64326246 0.06064945 41.52281274 0.07858547 43.40234375 0.09765625 C42.38397903 2.5986857 41.36286222 5.09852983 40.33984375 7.59765625 C40.02982422 8.35780029 39.71980469 9.11794434 39.40039062 9.90112305 C37.77974794 13.84879014 36.11811238 17.76717844 34.34375 21.6484375 C33.85563843 22.72351562 33.85563843 22.72351562 33.35766602 23.8203125 C32.73122007 25.19071304 32.09528635 26.55682463 31.44897461 27.91796875 C29.78926364 31.55603767 29.78926364 31.55603767 29.65234375 35.484375 C30.29203879 37.1017226 30.29203879 37.1017226 31.40234375 38.09765625 C34.95665954 38.50155577 36.83199949 38.4600368 39.88574219 36.51977539 C42.83928639 33.67711803 44.3328834 30.73562567 45.91796875 27.03125 C46.36991608 26.01829613 46.36991608 26.01829613 46.83099365 24.98487854 C47.7840833 22.84030286 48.71821158 20.68804651 49.65234375 18.53515625 C50.29437484 17.08475553 50.93759264 15.6348795 51.58203125 14.18554688 C54.716948 7.2304508 54.716948 7.2304508 57.40234375 0.09765625 C62.68234375 0.09765625 67.96234375 0.09765625 73.40234375 0.09765625 C72.49105401 4.65410497 71.10897778 8.49218943 69.26953125 12.70703125 C68.95460724 13.43327698 68.63968323 14.15952271 68.31521606 14.90777588 C67.64714392 16.44199854 66.97625416 17.97499696 66.30273438 19.50683594 C65.28911355 21.82078749 64.29471266 24.14238039 63.30078125 26.46484375 C54.38507758 46.98826673 54.38507758 46.98826673 44.0078125 52.16796875 C37.71936449 54.41182276 31.04621232 55.09765625 24.40234375 55.09765625 C23.18546875 55.28328125 21.96859375 55.46890625 20.71484375 55.66015625 C19.62171875 55.80453125 18.52859375 55.94890625 17.40234375 56.09765625 C17.07234375 55.76765625 16.74234375 55.43765625 16.40234375 55.09765625 C14.96653769 55.02484661 13.52733877 55.01398202 12.08984375 55.03515625 C11.30996094 55.04417969 10.53007813 55.05320313 9.7265625 55.0625 C8.95957031 55.07410156 8.19257812 55.08570313 7.40234375 55.09765625 C2.56262545 55.09765625 -2.26146547 54.95904913 -7.09765625 54.78515625 C-8.04769531 54.76259766 -8.99773438 54.74003906 -9.9765625 54.71679688 C-10.89308594 54.68134766 -11.80960938 54.64589844 -12.75390625 54.609375 C-13.58728516 54.58319092 -14.42066406 54.55700684 -15.27929688 54.5300293 C-18.12246709 53.99977925 -19.51295492 53.08452898 -21.59765625 51.09765625 C-24.00460427 43.38126407 -20.81590955 37.66395501 -17.59765625 30.59765625 C-17.09379395 29.45304932 -16.58993164 28.30844238 -16.07080078 27.12915039 C-15.0617546 24.84065686 -14.04512511 22.55549021 -13.02050781 20.27392578 C-11.77049046 17.48347867 -10.54622032 14.68451453 -9.33984375 11.875 C-4.28297579 0.11625884 -4.28297579 0.11625884 0 0 Z " fill="#EFE9E7" transform="translate(43.59765625,32.90234375)"/>
<path d="M0 0 C1.40668945 0.01450195 1.40668945 0.01450195 2.84179688 0.02929688 C3.81826172 0.05443359 4.79472656 0.07957031 5.80078125 0.10546875 C6.78884766 0.11900391 7.77691406 0.13253906 8.79492188 0.14648438 C11.23492356 0.18184672 13.67382844 0.23119842 16.11328125 0.29296875 C17.72021227 5.08849198 16.20657234 8.31331441 14.18359375 12.67578125 C13.87380585 13.37186493 13.56401794 14.06794861 13.24484253 14.78512573 C12.25513751 17.00192693 11.24728749 19.20989549 10.23828125 21.41796875 C9.24063747 23.6349015 8.24669965 25.85346809 7.25314331 28.07223511 C6.63429106 29.45044153 6.01227298 30.82723178 5.38674927 32.2024231 C4.17161999 34.87881602 3.04368119 37.50176894 2.11328125 40.29296875 C5.21962616 39.37631573 6.76989057 38.80819617 8.59545898 36.0690918 C8.99192627 35.15683838 9.38839355 34.24458496 9.796875 33.3046875 C10.24691895 32.29349854 10.69696289 31.28230957 11.16064453 30.24047852 C11.61938965 29.16467529 12.07813477 28.08887207 12.55078125 26.98046875 C13.03015137 25.89499756 13.50952148 24.80952637 14.00341797 23.69116211 C14.95354736 21.53945527 15.89739377 19.38496145 16.83447266 17.22753906 C18.42345066 13.58120161 20.0702073 9.96626322 21.73828125 6.35546875 C22.40730469 4.88787109 22.40730469 4.88787109 23.08984375 3.390625 C24.11328125 1.29296875 24.11328125 1.29296875 25.11328125 0.29296875 C26.74801007 0.20596533 28.3864218 0.18595812 30.0234375 0.1953125 C31.5074707 0.20014648 31.5074707 0.20014648 33.02148438 0.20507812 C34.06240234 0.21345703 35.10332031 0.22183594 36.17578125 0.23046875 C37.74295898 0.23723633 37.74295898 0.23723633 39.34179688 0.24414062 C41.93234785 0.25596962 44.52278684 0.27245186 47.11328125 0.29296875 C48.6925508 5.04263039 47.25035656 8.13267876 45.18359375 12.421875 C44.87380585 13.09339096 44.56401794 13.76490692 44.24484253 14.45677185 C43.25530789 16.59583107 42.24767923 18.72572083 41.23828125 20.85546875 C40.23958786 22.99026611 39.24475795 25.12678306 38.25314331 27.26487732 C37.63590497 28.59273445 37.0139662 29.91841946 36.38674927 31.24159241 C34.989505 34.22003862 33.73616852 37.05142287 33.11328125 40.29296875 C36.08443281 39.97333386 36.08443281 39.97333386 39.11328125 38.29296875 C39.8382429 36.24677523 40.54688981 34.19352137 41.17797852 32.11645508 C43.08374268 26.36334557 45.70373826 20.88277925 48.17578125 15.35546875 C48.72357713 14.11274912 49.27110502 12.86991132 49.81835938 11.62695312 C50.60049805 9.8702832 50.60049805 9.8702832 51.3984375 8.078125 C51.871604 7.014729 52.34477051 5.95133301 52.83227539 4.85571289 C54.11328125 2.29296875 54.11328125 2.29296875 56.11328125 0.29296875 C58.26806641 0.06591797 58.26806641 0.06591797 60.90234375 0.09765625 C62.31386719 0.10732422 62.31386719 0.10732422 63.75390625 0.1171875 C64.73875 0.13394531 65.72359375 0.15070312 66.73828125 0.16796875 C67.73085937 0.17699219 68.7234375 0.18601562 69.74609375 0.1953125 C72.20206259 0.21892759 74.65755293 0.25186076 77.11328125 0.29296875 C78.23388672 1.96630859 78.23388672 1.96630859 79.11328125 4.29296875 C78.45751953 6.75634766 78.45751953 6.75634766 77.18359375 9.51953125 C76.72194824 10.54296631 76.26030273 11.56640137 75.78466797 12.62084961 C75.27436035 13.70889893 74.76405273 14.79694824 74.23828125 15.91796875 C73.20134858 18.18207449 72.16489331 20.44639892 71.12890625 22.7109375 C70.35450195 24.38615479 70.35450195 24.38615479 69.56445312 26.09521484 C68.28771847 28.90858471 67.07852048 31.73412885 65.91015625 34.59375 C61.43133743 45.4849156 56.10325633 55.6858386 45.11328125 61.29296875 C39.37136653 63.4844662 34.25569801 64.69356115 28.11328125 64.29296875 C27.55078125 62.35546875 27.55078125 62.35546875 27.11328125 60.29296875 C28.89523118 58.51101882 31.69480154 58.82288538 34.11328125 58.54296875 C42.51373989 57.25624642 48.37769578 55.00190372 53.67578125 48.16796875 C57.70857399 41.91853705 60.34360974 35.02718934 63.1171875 28.15625 C65.4482419 22.39656978 68.09055517 16.80528765 70.765625 11.19921875 C72.16616007 8.32134707 72.16616007 8.32134707 73.11328125 5.29296875 C67.83328125 5.29296875 62.55328125 5.29296875 57.11328125 5.29296875 C56.78328125 6.94296875 56.45328125 8.59296875 56.11328125 10.29296875 C54.48809339 14.51852267 52.65181433 18.64946993 50.81323242 22.78564453 C49.9312778 24.78053612 49.07205234 26.78426981 48.21289062 28.7890625 C47.64591186 30.07222551 47.0775951 31.35479831 46.5078125 32.63671875 C46.00096924 33.79365234 45.49412598 34.95058594 44.97192383 36.14257812 C42.7251469 39.9508547 40.70941891 41.74642713 37.11328125 44.29296875 C33.79718741 44.81314033 32.08161955 44.8552297 29.17578125 43.16796875 C27.5607353 40.31788766 28.39999327 38.44554843 29.11328125 35.29296875 C30.02687673 32.95581642 31.01401965 30.64668839 32.0546875 28.36328125 C32.34182114 27.72808563 32.62895477 27.09289001 32.92478943 26.43844604 C33.83517204 24.42853694 34.75528314 22.42326219 35.67578125 20.41796875 C36.29817648 19.0484725 36.91992791 17.67868347 37.54101562 16.30859375 C39.05650856 12.9660112 40.58510111 9.62988505 42.11328125 6.29296875 C37.16328125 6.29296875 32.21328125 6.29296875 27.11328125 6.29296875 C26.20964844 8.31679688 25.30601563 10.340625 24.375 12.42578125 C23.4916086 14.40183436 22.60776425 16.37768429 21.72387695 18.35351562 C21.11337764 19.718864 20.50334387 21.08442064 19.89379883 22.45019531 C19.0137795 24.42178401 18.13204693 26.39259897 17.25 28.36328125 C16.72108154 29.54680176 16.19216309 30.73032227 15.6472168 31.94970703 C10.90408436 42.28751628 10.90408436 42.28751628 6.11328125 44.29296875 C2.92578125 44.60546875 2.92578125 44.60546875 0.11328125 44.29296875 C-1.88671875 42.29296875 -1.88671875 42.29296875 -2.18945312 39.61474609 C-1.83644675 35.74135518 -0.6330022 32.64067897 0.95703125 29.14453125 C1.24557983 28.48713959 1.53412842 27.82974792 1.8314209 27.1524353 C2.74846137 25.06956824 3.6805545 22.99385157 4.61328125 20.91796875 C5.24059248 19.50044616 5.86690531 18.08248129 6.4921875 16.6640625 C8.01924828 13.20083447 9.56651144 9.74770461 11.11328125 6.29296875 C6.16328125 6.29296875 1.21328125 6.29296875 -3.88671875 6.29296875 C-5.97092871 10.98732155 -8.05211479 15.68299923 -10.13061523 20.37988281 C-10.83683425 21.97464379 -11.54385134 23.56905161 -12.25170898 25.16308594 C-13.27411992 27.46585223 -14.29357108 29.76990998 -15.3125 32.07421875 C-15.62512283 32.77663696 -15.93774567 33.47905518 -16.25984192 34.20275879 C-21.24438616 44.86492805 -21.24438616 44.86492805 -20.88671875 56.29296875 C-17.7348844 58.39419165 -16.77098103 58.57101061 -13.140625 58.70703125 C-12.22087891 58.74570313 -11.30113281 58.784375 -10.35351562 58.82421875 C-9.39509766 58.85515625 -8.43667969 58.88609375 -7.44921875 58.91796875 C-6.01739258 58.97597656 -6.01739258 58.97597656 -4.55664062 59.03515625 C0.07776134 59.21677032 4.6928976 59.3313199 9.33203125 59.2578125 C10.08484375 59.24878906 10.83765625 59.23976562 11.61328125 59.23046875 C12.7425 59.21306641 12.7425 59.21306641 13.89453125 59.1953125 C16.10253572 59.2924958 17.97899609 59.75491367 20.11328125 60.29296875 C22.3003151 59.91389593 22.3003151 59.91389593 24.11328125 59.29296875 C24.60828125 61.27296875 24.60828125 61.27296875 25.11328125 63.29296875 C22.01789964 64.28791284 20.2150025 64.14861599 17.11328125 63.29296875 C16.78328125 63.62296875 16.45328125 63.95296875 16.11328125 64.29296875 C14.67747519 64.36577839 13.23827627 64.37664298 11.80078125 64.35546875 C10.63095703 64.34193359 10.63095703 64.34193359 9.4375 64.328125 C8.28701172 64.31072266 8.28701172 64.31072266 7.11328125 64.29296875 C4.49208271 64.29296875 1.87076451 64.31558281 -0.75 64.36328125 C-2.23306929 64.38180308 -3.71614238 64.40002314 -5.19921875 64.41796875 C-5.93333984 64.43472656 -6.66746094 64.45148438 -7.42382812 64.46875 C-13.61665738 64.52369968 -18.8753027 63.99829975 -23.76171875 59.85546875 C-26.48840671 56.56740385 -27.301856 53.77006476 -27.23046875 49.51025391 C-26.43687647 44.39135824 -23.97444205 39.6802341 -21.88671875 34.98046875 C-21.38849609 33.83505615 -20.89027344 32.68964355 -20.37695312 31.50952148 C-19.36762112 29.19430951 -18.35269707 26.8815269 -17.33203125 24.57128906 C-16.03028538 21.61861278 -14.7504174 18.65785944 -13.48046875 15.69140625 C-12.78337816 14.07906968 -12.08552087 12.46706427 -11.38671875 10.85546875 C-11.07347656 10.12352295 -10.76023437 9.39157715 -10.4375 8.63745117 C-7.91668425 2.92227202 -6.53847232 -0.11888131 0 0 Z " fill="#34314E" transform="translate(43.88671875,27.70703125)"/>
<path d="M0 0 C8.73883808 6.76310078 15.91824492 15.95764695 18 27 C19.9650125 45.4899097 15.49074267 59.52206252 4 74 C-8.16643486 88.45596089 -27.58448646 97.27449271 -46 100 C-68.61592045 101.50114075 -86.11808337 98.96149396 -104.56640625 85.33203125 C-105.03949219 84.89246094 -105.51257813 84.45289062 -106 84 C-106 83.34 -106 82.68 -106 82 C-106.99 81.67 -107.98 81.34 -109 81 C-110.71875 78.8125 -110.71875 78.8125 -112.5 76 C-113.0878125 75.0925 -113.675625 74.185 -114.28125 73.25 C-118.12314566 65.98532458 -119.5382849 59.37647169 -119.4375 51.1875 C-119.42505249 49.8737439 -119.42505249 49.8737439 -119.41235352 48.53344727 C-119.02104647 33.4590745 -112.0742274 22.35720608 -102.375 11.25 C-101.91988037 10.71181641 -101.46476074 10.17363281 -100.99584961 9.61914062 C-99.6484375 8.140625 -99.6484375 8.140625 -97 6 C-94.1640625 6.171875 -94.1640625 6.171875 -92 7 C-93.47379293 10.48563724 -95.41905957 12.51324762 -98.1875 15.0625 C-105.7731989 22.51383064 -110.69555487 30.60234355 -113 41 C-113.226875 42.010625 -113.45375 43.02125 -113.6875 44.0625 C-114.91950058 55.64330545 -112.70287451 66.45529265 -105.6796875 76.01171875 C-95.57985941 87.96709666 -80.4800323 93.98031649 -65.0859375 95.34765625 C-42.2052579 95.86664602 -20.11454858 89.14989871 -3.16577148 73.32958984 C6.81824662 63.53338496 12.95298713 50.41492371 13.3125 36.375 C13.19204944 25.46753254 8.55654598 16.06734953 1.2578125 8.09765625 C-12.05802098 -4.52752197 -30.12421818 -7.6125027 -47.77734375 -7.359375 C-57.27846875 -6.93781728 -66.514601 -3.96847461 -75.41796875 -0.7734375 C-78 0 -78 0 -80 -1 C-79.74121094 -2.89575195 -79.74121094 -2.89575195 -79 -5 C-77.31347656 -5.98901367 -77.31347656 -5.98901367 -75.140625 -6.66796875 C-74.35429688 -6.92126953 -73.56796875 -7.17457031 -72.7578125 -7.43554688 C-71.51644531 -7.80776367 -71.51644531 -7.80776367 -70.25 -8.1875 C-69.43789062 -8.44724609 -68.62578125 -8.70699219 -67.7890625 -8.97460938 C-44.80735746 -16.21721512 -19.96755896 -13.41999895 0 0 Z " fill="#272947" transform="translate(119,12)"/>
<path d="M0 0 C0.78761719 0.00257812 1.57523438 0.00515625 2.38671875 0.0078125 C3.16660156 0.00523438 3.94648437 0.00265625 4.75 0 C6.98891938 0.12793825 8.90872404 0.58800516 11.07421875 1.1328125 C13.2612526 0.75373968 13.2612526 0.75373968 15.07421875 0.1328125 C15.40421875 1.4528125 15.73421875 2.7728125 16.07421875 4.1328125 C12.97883714 5.12775659 11.17594 4.98845974 8.07421875 4.1328125 C7.74421875 4.4628125 7.41421875 4.7928125 7.07421875 5.1328125 C5.55493837 5.20461214 4.03254393 5.21673257 2.51171875 5.1953125 C1.68542969 5.18628906 0.85914063 5.17726563 0.0078125 5.16796875 C-0.63027344 5.15636719 -1.26835938 5.14476563 -1.92578125 5.1328125 C-2.48828125 3.1953125 -2.48828125 3.1953125 -2.92578125 1.1328125 C-1.92578125 0.1328125 -1.92578125 0.1328125 0 0 Z " fill="#463855" transform="translate(52.92578125,86.8671875)"/>
<path d="M0 0 C-0.33 1.65 -0.66 3.3 -1 5 C-4.75 6.125 -4.75 6.125 -7 5 C-5.22678182 1.07358831 -4.52021524 0 0 0 Z " fill="#282947" transform="translate(34,12)"/>
<path d="M0 0 C-0.33 1.32 -0.66 2.64 -1 4 C-3.66666667 3.33333333 -6.33333333 2.66666667 -9 2 C-8 0 -8 0 -6.1875 -0.6875 C-3.81180233 -1.02688538 -2.26664171 -0.72856341 0 0 Z " fill="#55405C" transform="translate(69,88)"/>
</svg>
